<svg height="2304.773" viewBox="0 0 727.5 2304.773" width="727.5" xmlns="http://www.w3.org/2000/svg" xmlns:xlink="http://www.w3.org/1999/xlink"><radialGradient id="a" cx=".151" cy=".102" gradientTransform="matrix(.581 -.814 .738 .526 -.012 .171)" gradientUnits="objectBoundingBox" r="2.367"><stop offset="0" stop-color="#00a7ff"/><stop offset="1" stop-color="#140084"/></radialGradient><path d="m-2860.65 3324.259c-4.348-4.51-20.428-21.31-44.793-48.131-30.941-34.061-62.836-70.571-94.8-108.517-43.426-51.553-85.912-104.531-126.281-157.46-23.714-31.093-46.983-62.554-69.159-93.509-24.274-33.883-47.854-68.018-70.085-101.457-24.068-36.2-47.18-72.528-68.7-107.972-23.094-38.045-44.961-76.083-64.992-113.059-21.357-39.423-41.2-78.691-58.973-116.716-9.289-19.869-18.207-39.814-26.506-59.281-8.535-20.019-16.655-40.092-24.134-59.66-7.683-20.1-14.906-40.241-21.471-59.86-6.736-20.131-12.967-40.278-18.52-59.879-5.691-20.091-10.832-40.184-15.279-59.722-4.553-20-8.506-39.982-11.749-59.385-3.318-19.853-5.986-39.659-7.929-58.869-1.987-19.638-3.272-39.211-3.82-58.174-.56-19.376-.365-38.655.578-57.3.963-19.045 2.735-37.97 5.266-56.249 2.728-19.7 6.416-39.229 10.963-58.032a555.273 555.273 0 0 1 16.848-56.451 533.845 533.845 0 0 1 23.074-54.66 531.932 531.932 0 0 1 29.639-52.658 550.357 550.357 0 0 1 36.546-50.446 591.244 591.244 0 0 1 43.792-48.024 657.413 657.413 0 0 1 51.378-45.392c18.5-14.726 38.453-29.041 59.3-42.549 27.38-17.737 54.188-36.167 79.678-54.781 24.9-18.184 49.236-37.044 72.321-56.055 22.535-18.558 44.5-37.771 65.291-57.1 20.276-18.857 39.989-38.348 58.59-57.93 18.125-19.08 35.693-38.773 52.218-58.531 16.08-19.226 31.615-39.046 46.173-58.908 14.15-19.3 27.761-39.175 40.457-59.06 12.324-19.3 24.123-39.149 35.07-58.989v1288.456c-1.176 342.908-.649 614.84 0 782.58z" fill="url(#a)" transform="translate(3588.15 -1019.486)"/></svg>