<svg height="1333.878" viewBox="0 0 1140.966 1333.878" width="1140.966" xmlns="http://www.w3.org/2000/svg" xmlns:xlink="http://www.w3.org/1999/xlink"><radialGradient id="a" cx=".151" cy=".102" gradientTransform="matrix(.581 -.814 .738 .526 -.012 .171)" gradientUnits="objectBoundingBox" r="2.367"><stop offset="0" stop-color="#00a7ff"/><stop offset="1" stop-color="#140084"/></radialGradient><path d="m-4089.156 1709.379c-.048-.317-.177-1.229-.343-2.843v-.244l.345 3.086zm-.343-44.69v-1289.189h1140.964c-5.644 12.945-11.572 25.888-17.621 38.473-7.876 16.384-16.245 32.764-24.875 48.686-8.891 16.407-18.31 32.79-27.995 48.695-9.986 16.4-20.515 32.715-31.294 48.5-11.1 16.262-22.8 32.451-34.767 48.116-12.278 16.071-25.2 32.06-38.414 47.525-13.547 15.853-27.758 31.577-42.237 46.733-14.842 15.534-30.4 30.924-46.234 45.74-16.2 15.159-33.162 30.148-50.406 44.55-17.625 14.72-36.046 29.24-54.752 43.159-19.123 14.226-39.065 28.21-59.273 41.564-20.646 13.644-42.169 27.026-63.97 39.772-34.451 20.143-68.086 40.8-99.97 61.409-30.811 19.911-60.825 40.31-89.209 60.63-27.354 19.58-53.954 39.633-79.059 59.6-24.134 19.192-47.522 38.812-69.516 58.315-21.121 18.728-41.5 37.832-60.582 56.779-18.266 18.138-35.847 36.639-52.256 54.99-15.643 17.493-30.628 35.307-44.538 52.948-13.225 16.77-25.818 33.813-37.431 50.655-40.255 58.382-70.807 117.136-90.808 174.632a522.882 522.882 0 0 0 -18.578 66.988 405.975 405.975 0 0 0 -7.179 50.717z" fill="url(#a)" transform="translate(4089.5 -375.5)"/></svg>