<svg height="1429.286" viewBox="0 0 635.74 1429.286" width="635.74" xmlns="http://www.w3.org/2000/svg" xmlns:xlink="http://www.w3.org/1999/xlink"><radialGradient id="a" cx=".151" cy=".102" gradientTransform="matrix(.581 -.814 .738 .526 -.012 .171)" gradientUnits="objectBoundingBox" r="2.367"><stop offset="0" stop-color="#00a7ff"/><stop offset="1" stop-color="#140084"/></radialGradient><path d="m-2952.409 2448.772c-8.688-6.4-55.321-41.065-120.205-95.646-37.419-31.476-74.071-63.835-108.938-96.178-42.991-39.878-83.531-79.986-120.492-119.209-20.874-22.152-40.946-44.385-59.656-66.083-20.093-23.3-39.149-46.6-56.638-69.251-18.65-24.153-36.028-48.228-51.651-71.557-16.559-24.726-31.6-49.286-44.695-73a748.965 748.965 0 0 1 -35.77-73.578c-5.148-12.359-9.832-24.718-13.922-36.736-4.19-12.311-7.875-24.61-10.953-36.558-3.151-12.231-5.754-24.434-7.737-36.271-2.029-12.106-3.467-24.177-4.276-35.876a329.288 329.288 0 0 1 -.567-35.374 297.5 297.5 0 0 1 3.387-34.764 278.177 278.177 0 0 1 8.6-37.449 273.486 273.486 0 0 1 14.022-36.434 285.439 285.439 0 0 1 19.774-35.275 315.9 315.9 0 0 1 25.855-33.971 367.8 367.8 0 0 1 32.265-32.524 445.3 445.3 0 0 1 39-30.932c14.225-10.076 29.725-19.9 46.069-29.2 16.641-9.467 34.629-18.657 53.465-27.316 23.923-11 47.349-22.427 69.629-33.972 21.763-11.277 43.026-22.973 63.2-34.762 19.693-11.509 38.889-23.423 57.056-35.413 17.719-11.694 34.945-23.782 51.2-35.925 15.836-11.831 31.189-24.043 45.632-36.3 14.056-11.927 27.631-24.218 40.349-36.531 12.364-11.97 24.259-24.293 35.354-36.626 10.773-11.974 21.084-24.281 30.647-36.581v798.92c-1.029 212.771-.568 381.475 0 485.534z" fill="url(#a)" transform="matrix(-1 0 0 -1 -2952.409 2448.772)"/></svg>