<svg height="2074.287" viewBox="0 0 557.5 2074.287" width="557.5" xmlns="http://www.w3.org/2000/svg" xmlns:xlink="http://www.w3.org/1999/xlink"><radialGradient id="a" cx=".151" cy=".102" gradientTransform="matrix(.581 -.814 .738 .526 -.012 .171)" gradientUnits="objectBoundingBox" r="2.367"><stop offset="0" stop-color="#00a7ff"/><stop offset="1" stop-color="#140084"/></radialGradient><path d="m-3030.651 3093.772c-7.62-9.281-48.513-59.6-105.412-138.808-32.814-45.681-64.955-92.642-95.531-139.581-37.7-57.875-73.25-116.082-105.664-173-18.3-32.148-35.906-64.415-52.314-95.9-17.62-33.816-34.331-67.63-49.668-100.5-16.354-35.053-31.594-69.992-45.294-103.848-14.522-35.885-27.708-71.529-39.195-105.941-12.117-36.307-22.671-72.233-31.367-106.782-4.515-17.936-8.622-35.874-12.209-53.315-3.674-17.866-6.906-35.716-9.605-53.055-2.763-17.751-5.046-35.461-6.785-52.639-1.779-17.57-3.04-35.087-3.749-52.066-.724-17.347-.892-34.619-.5-51.337.4-17.069 1.4-34.044 2.971-50.451 1.764-18.458 4.3-36.744 7.541-54.349 3.31-17.992 7.448-35.782 12.3-52.876a535.1 535.1 0 0 1 17.341-51.193 509.7 509.7 0 0 1 22.673-49.3 501.007 501.007 0 0 1 28.294-47.2 510.026 510.026 0 0 1 34.2-44.891 538.22 538.22 0 0 1 40.4-42.371 587.985 587.985 0 0 1 46.885-39.643c20.978-15.96 41.522-32.548 61.059-49.3 19.084-16.366 37.73-33.34 55.421-50.449 17.269-16.7 34.1-33.994 50.034-51.394 15.538-16.972 30.645-34.514 44.9-52.137 13.887-17.17 27.35-34.893 40.016-52.678 12.326-17.309 24.23-35.146 35.383-53.017 10.843-17.372 21.273-35.256 31-53.154 9.447-17.377 18.489-35.239 26.875-53.09v1159.418c-.9 308.788-.5 553.625 0 704.643z" fill="url(#a)" transform="translate(3588.15 -1019.486)"/></svg>